<svg width="20" height="20" viewBox="0 0 20 20" fill="none" xmlns="http://www.w3.org/2000/svg">
<rect x="2.5" y="2.5" width="15" height="15" rx="7.5" stroke="#C9511E"/>
<rect width="20" height="20" rx="10" fill="#DCD0D0"/>
<rect x="2.5" y="2.5" width="15" height="15" rx="7.5" stroke="#C9511E"/>
<path d="M12.5418 7.868C12.5418 8.172 12.4818 8.464 12.3618 8.744C12.2418 9.024 12.0858 9.296 11.8938 9.56C11.7018 9.816 11.4858 10.064 11.2458 10.304C11.0058 10.544 10.7698 10.772 10.5378 10.988C10.4178 11.1 10.2858 11.228 10.1418 11.372C10.0058 11.508 9.87384 11.648 9.74584 11.792C9.61784 11.936 9.50184 12.072 9.39784 12.2C9.30184 12.32 9.24184 12.42 9.21784 12.5H12.7938V14H7.24984C7.23384 13.912 7.22584 13.8 7.22584 13.664C7.22584 13.528 7.22584 13.432 7.22584 13.376C7.22584 12.992 7.28584 12.64 7.40584 12.32C7.53384 12 7.69784 11.704 7.89784 11.432C8.09784 11.152 8.32184 10.892 8.56984 10.652C8.82584 10.412 9.07784 10.172 9.32584 9.932C9.51784 9.748 9.69784 9.576 9.86584 9.416C10.0338 9.248 10.1818 9.088 10.3098 8.936C10.4378 8.776 10.5378 8.62 10.6098 8.468C10.6818 8.308 10.7178 8.148 10.7178 7.988C10.7178 7.636 10.6178 7.388 10.4178 7.244C10.2178 7.1 9.96984 7.028 9.67384 7.028C9.45784 7.028 9.25384 7.064 9.06184 7.136C8.87784 7.2 8.70584 7.28 8.54584 7.376C8.39384 7.464 8.26184 7.556 8.14984 7.652C8.03784 7.74 7.95384 7.812 7.89784 7.868L7.00984 6.62C7.36184 6.292 7.76984 6.024 8.23384 5.816C8.70584 5.6 9.20984 5.492 9.74584 5.492C10.2338 5.492 10.6538 5.548 11.0058 5.66C11.3578 5.772 11.6458 5.932 11.8698 6.14C12.1018 6.34 12.2698 6.588 12.3738 6.884C12.4858 7.172 12.5418 7.5 12.5418 7.868Z" fill="#2A2C45"/>
</svg>

