<svg width="50" height="50" viewBox="0 0 50 50" fill="none" xmlns="http://www.w3.org/2000/svg">
<path d="M39 30.75C39.7292 28.9792 40.125 27.0834 40.125 25C40.125 23.5 39.8958 22.0625 39.5 20.7292C38.1458 21.0417 36.7292 21.2084 35.25 21.2084C32.2208 21.2116 29.2352 20.4865 26.5448 19.0942C23.8545 17.702 21.5384 15.6833 19.7917 13.2084C17.9231 17.7296 14.3982 21.3663 9.93749 23.375C9.85416 23.8959 9.85416 24.4584 9.85416 25C9.85416 26.989 10.2459 28.9585 11.0071 30.7961C11.7682 32.6337 12.8838 34.3033 14.2903 35.7098C17.1307 38.5501 20.9831 40.1459 25 40.1459C27.1875 40.1459 29.2917 39.6667 31.1875 38.8125C32.375 41.0834 32.9167 42.2084 32.875 42.2084C29.4583 43.3542 26.8125 43.9167 25 43.9167C19.9583 43.9167 15.1458 41.9375 11.6042 38.375C9.44998 36.2275 7.84868 33.5896 6.93749 30.6875H4.16666V21.2084H6.43749C7.12549 17.8594 8.70727 14.7592 11.015 12.2367C13.3227 9.71414 16.2702 7.86338 19.5448 6.88078C22.8195 5.89818 26.299 5.82039 29.6143 6.65567C32.9296 7.49095 35.9569 9.20814 38.375 11.625C41.0005 14.2401 42.7913 17.5752 43.5208 21.2084H45.8333V30.6875H45.7083L38.2917 37.5L27.25 36.25V32.7709H37.3125L39 30.75ZM19.3125 24.5209C19.9375 24.5209 20.5417 24.7709 20.9792 25.2292C21.4188 25.6725 21.6655 26.2715 21.6655 26.8959C21.6655 27.5202 21.4188 28.1193 20.9792 28.5625C20.5417 29 19.9375 29.25 19.3125 29.25C18 29.25 16.9375 28.2084 16.9375 26.8959C16.9375 25.5834 18 24.5209 19.3125 24.5209ZM30.6667 24.5209C31.9792 24.5209 33.0208 25.5834 33.0208 26.8959C33.0208 28.2084 31.9792 29.25 30.6667 29.25C29.3542 29.25 28.2917 28.2084 28.2917 26.8959C28.2917 26.266 28.5419 25.6619 28.9873 25.2165C29.4327 24.7711 30.0368 24.5209 30.6667 24.5209Z" fill="#C9511E"/>
</svg>
