<svg width="50" height="50" viewBox="0 0 50 50" fill="none" xmlns="http://www.w3.org/2000/svg">
<path d="M45.2292 18.1458C47.8333 15.5417 46.6458 12.5 45.2292 11.0208L38.9792 4.77083C36.3542 2.16666 33.3333 3.35416 31.8542 4.77083L28.3125 8.33333H22.9167C18.9583 8.33333 16.6667 10.4167 15.5 12.8125L6.24999 22.0625V30.3958L4.77083 31.8542C2.16666 34.4792 3.35416 37.5 4.77083 38.9792L11.0208 45.2292C12.1458 46.3542 13.3542 46.7708 14.5 46.7708C15.9792 46.7708 17.3333 46.0417 18.1458 45.2292L23.7708 39.5833H31.25C34.7917 39.5833 36.5833 37.375 37.2292 35.2083C39.5833 34.5833 40.875 32.7917 41.3958 31.0417C44.625 30.2083 45.8333 27.1458 45.8333 25V18.75H44.6042L45.2292 18.1458ZM41.6667 25C41.6667 25.9375 41.2708 27.0833 39.5833 27.0833H37.5V29.1667C37.5 30.1042 37.1042 31.25 35.4167 31.25H33.3333V33.3333C33.3333 34.2708 32.9375 35.4167 31.25 35.4167H22.0625L15.2292 42.25C14.5833 42.8542 14.2083 42.5 13.9792 42.2708L7.74999 36.0625C7.14583 35.4167 7.49999 35.0417 7.72916 34.8125L10.4167 32.1042V23.7708L14.5833 19.6042V22.9167C14.5833 25.4375 16.25 29.1667 20.8333 29.1667C25.4167 29.1667 27.0833 25.4375 27.0833 22.9167H41.6667V25ZM42.2708 15.1875L38.7292 18.75H22.9167V22.9167C22.9167 23.8542 22.5208 25 20.8333 25C19.1458 25 18.75 23.8542 18.75 22.9167V16.6667C18.75 15.7083 19.1042 12.5 22.9167 12.5H30.0208L34.7708 7.74999C35.4167 7.14583 35.7917 7.49999 36.0208 7.72916L42.25 13.9375C42.8542 14.5833 42.5 14.9583 42.2708 15.1875Z" fill="#BC3838"/>
</svg>
