<svg width="50" height="50" viewBox="0 0 50 50" fill="none" xmlns="http://www.w3.org/2000/svg">
<path d="M3.125 8.33334V11.4583C3.125 20.1042 7.72917 27.6667 14.5833 31.875V41.6667H45.8333V37.5C45.8333 31.9583 34.7292 29.1667 29.1667 29.1667H28.6458C18.75 29.1667 10.4167 20.8333 10.4167 11.4583V8.33334M29.1667 8.33334C26.9565 8.33334 24.8369 9.21132 23.2741 10.7741C21.7113 12.3369 20.8333 14.4565 20.8333 16.6667C20.8333 18.8768 21.7113 20.9964 23.2741 22.5592C24.8369 24.122 26.9565 25 29.1667 25C31.3768 25 33.4964 24.122 35.0592 22.5592C36.622 20.9964 37.5 18.8768 37.5 16.6667C37.5 14.4565 36.622 12.3369 35.0592 10.7741C33.4964 9.21132 31.3768 8.33334 29.1667 8.33334Z" fill="#c9511e"/>
</svg>
