<svg width="150" height="150" viewBox="0 0 150 150" fill="none" xmlns="http://www.w3.org/2000/svg">
<circle cx="75" cy="75" r="75" fill="#BC3838"/>
<circle cx="75" cy="75" r="65" fill="#C6870E"/>
<path d="M94.15 61.4167C89.7333 61.1958 85.3167 62.9625 82.0042 66.0542C78.9125 69.1458 77.1458 73.5625 77.1458 77.9792L72.95 86.8125C72.5083 87.9167 72.95 89.2417 74.0542 89.6833C74.275 90.125 74.7167 90.125 74.9375 90.125H77.1458V94.5417C77.1458 96.9708 79.1333 98.9583 81.5625 98.9583H83.7708V103.375C83.7708 104.7 84.6542 105.583 85.9792 105.583H106.517C107.621 105.142 108.283 104.038 108.063 102.933L106.075 95.8667L110.271 79.7458V78.6417C110.271 69.5875 103.204 61.8583 94.15 61.4167V61.4167Z" fill="#525688"/>
<path d="M94.5 64.1667C90.3333 63.9583 86.1667 65.625 83.0417 68.5417C80.125 71.4583 78.4583 75.625 78.4583 79.7917L74.5 88.125C74.0833 89.1667 74.5 90.4167 75.5417 90.8333C75.75 91.25 76.1667 91.25 76.375 91.25H78.4583V95.4167C78.4583 97.7083 80.3333 99.5833 82.625 99.5833H84.7083V103.75C84.7083 105 85.5417 105.833 86.7917 105.833H106.167C107.208 105.417 107.833 104.375 107.625 103.333L105.75 96.6667L109.708 81.4583V80.4167C109.708 71.875 103.042 64.5833 94.5 64.1667V64.1667Z" fill="#2A2C45"/>
<circle cx="45.5" cy="52.5" r="12.5" fill="#F5BC4C"/>
</svg>
